<?xml version="1.0" encoding="utf-8"?>
<!-- Generator: Adobe Illustrator 16.0.3, SVG Export Plug-In . SVG Version: 6.00 Build 0)  -->
<!DOCTYPE svg PUBLIC "-//W3C//DTD SVG 1.1//EN" "http://www.w3.org/Graphics/SVG/1.1/DTD/svg11.dtd">
<svg version="1.1" id="Capa_1" xmlns="http://www.w3.org/2000/svg" xmlns:xlink="http://www.w3.org/1999/xlink" x="0px" y="0px"
	 width="700px" height="700px" viewBox="0 0 700 700" enable-background="new 0 0 700 700" xml:space="preserve">
<g>
	<path d="M384.377,462.994c-2.961-0.238-53.44-0.238-56.402,0c-0.896,0.07-1.793,0.176-2.695,0.313
		c-7.983,1.211-15.823,5.095-16.663,14.125c-0.27,5.98,2.09,11.781,6.46,15.875c5.735,4.898,12.38,8.617,19.553,10.949
		c1.909,0.797,21.357,9.098,21.547,8.746c0.188,0.348,19.641-7.949,21.547-8.746c7.176-2.332,13.82-6.051,19.555-10.949
		c4.367-4.094,6.728-9.895,6.457-15.875c-0.836-9.03-8.68-12.914-16.664-14.125c-0.897-0.137-1.797-0.237-2.69-0.313H384.377
		L384.377,462.994z"/>
	<path d="M633.918,353.754c-14.763-31.069-33.763-59.948-56.453-85.805c38.996-52.648,38.823-111,34.555-143.42
		c-1.961-15.355-11.094-28.867-24.617-36.406c-13.18-7.52-29.147-8.332-43.02-2.184c-42.078,18.148-77.043,49.602-99.523,89.531
		c-28.508-9.859-58.426-15.039-88.59-15.34c-30.164,0.301-60.082,5.48-88.589,15.34c-22.479-39.93-57.445-71.383-99.522-89.531
		c-13.871-6.145-29.841-5.336-43.021,2.184c-13.523,7.539-22.656,21.051-24.617,36.406c-4.27,32.422-4.44,90.773,34.556,143.42
		c-22.69,25.854-41.69,54.733-56.453,85.805l-2.353,5.262l1.457,5.598c6.785,22.914,16.238,44.954,28.156,65.665
		c8.094,14.534,17.301,28.422,27.539,41.534c41.703,53.625,111.34,107.25,222.729,107.25h0.223
		c111.39,0,181.029-53.625,222.73-107.25h0.004c10.236-13.112,19.443-27,27.539-41.534c11.918-20.711,21.369-42.751,28.154-65.659
		l1.457-5.602L633.918,353.754z M557.895,116.684c4.203-1.871,9.051-1.609,13.027,0.699c4.284,2.387,7.18,6.668,7.797,11.531
		c6.207,39.855-2.668,80.59-24.888,114.26c-22.926-22.094-49.108-40.535-77.629-54.688c19.056-31.883,47.625-56.996,81.689-71.801
		L557.895,116.684z M133.825,128.914c0.616-4.863,3.512-9.145,7.797-11.531c3.977-2.309,8.823-2.57,13.026-0.699
		c34.065,14.805,62.638,39.918,81.69,71.801c-28.521,14.152-54.702,32.594-77.629,54.688
		C136.492,209.505,127.617,168.771,133.825,128.914L133.825,128.914z M230.38,369.596c-0.008-5.695,2.25-11.164,6.277-15.195
		c4.022-4.031,9.483-6.297,15.185-6.301c5.695-0.004,11.16,2.262,15.188,6.29c4.028,4.026,6.289,9.491,6.289,15.188
		c-0.004,5.695-2.27,11.16-6.301,15.184c-4.035,4.023-9.5,6.281-15.193,6.273c-5.688,0-11.143-2.258-15.16-6.277
		c-4.021-4.023-6.281-9.477-6.281-15.16H230.38L230.38,369.596z M460.731,391.035v-0.004c-5.684,0-11.139-2.258-15.16-6.277
		c-4.02-4.02-6.276-9.473-6.276-15.16c0-5.687,2.258-11.142,6.276-15.16c4.023-4.02,9.478-6.28,15.16-6.28
		c5.688,0,11.141,2.261,15.158,6.28c4.022,4.021,6.281,9.475,6.281,15.16c-0.005,5.684-2.267,11.139-6.285,15.156
		c-4.02,4.018-9.47,6.277-15.154,6.281V391.035z M588.75,393.051l0.004-0.004c-8.691-11.656-18.646-22.314-29.672-31.793
		c-33.027-28.941-82.513-70.418-129.98-55.138l0.004-0.004c-10.086,3.48-19.039,9.625-25.91,17.789
		c-6.871,8.16-11.401,18.031-13.108,28.563c-4.423,25.863,9.069,49.707,22.672,70.418c16.512,25.023,47.469,68.349,43.828,103.73
		h0.004c-31.82,12.861-65.883,19.271-100.199,18.866h-0.228c-34.315,0.405-68.378-6.005-100.199-18.866
		c-3.641-35.38,27.314-78.703,43.827-103.73c13.603-20.711,27.094-44.559,22.672-70.418h0.004
		c-1.707-10.531-6.238-20.402-13.108-28.563c-6.87-8.164-15.823-14.309-25.909-17.789c-47.47-15.28-96.953,26.199-129.979,55.138
		l0.004,0.004c-11.026,9.477-20.979,20.137-29.672,31.793c-4.603-10.082-8.582-20.439-11.923-31.013
		c14.556-28.772,91.974-166.089,244.4-168.319c152.431,2.238,229.84,139.55,244.398,168.319c-3.34,10.569-7.32,20.931-11.922,31.013
		L588.75,393.051z"/>
</g>
</svg>
